<?xml version="1.0" encoding="utf-8" standalone="no"?>
<!DOCTYPE svg PUBLIC "-//W3C//DTD SVG 1.1//EN"
  "http://www.w3.org/Graphics/SVG/1.1/DTD/svg11.dtd">
<svg xmlns:xlink="http://www.w3.org/1999/xlink" width="1080pt" height="1080pt" viewBox="0 0 1080 1080" xmlns="http://www.w3.org/2000/svg" version="1.1">
 <metadata>
  <rdf:RDF xmlns:dc="http://purl.org/dc/elements/1.1/" xmlns:cc="http://creativecommons.org/ns#" xmlns:rdf="http://www.w3.org/1999/02/22-rdf-syntax-ns#">
   <cc:Work>
    <dc:type rdf:resource="http://purl.org/dc/dcmitype/StillImage"/>
    <dc:date>2023-09-06T13:01:51.840075</dc:date>
    <dc:format>image/svg+xml</dc:format>
    <dc:creator>
     <cc:Agent>
      <dc:title>Matplotlib v3.5.0, https://matplotlib.org/</dc:title>
     </cc:Agent>
    </dc:creator>
   </cc:Work>
  </rdf:RDF>
 </metadata>
 <defs>
  <style type="text/css">*{stroke-linejoin: round; stroke-linecap: butt}</style>
 </defs>
 <g id="figure_1">
  <g id="patch_1">
   <path d="M 0 1080 
L 1080 1080 
L 1080 0 
L 0 0 
z
" style="fill: #ffffff"/>
  </g>
  <g id="axes_1">
   <g id="patch_2">
    <path d="M 133.281455 951.234832 
Q 130.511024 930.494768 127.888624 910.862894 
" clip-path="url(#p3382bec31a)" style="fill: none; stroke: #ead4c8; stroke-linecap: round"/>
    <path d="M 126.435842 915.092484 
L 127.888624 910.862894 
L 130.400627 914.562873 
L 126.435842 915.092484 
z
" clip-path="url(#p3382bec31a)" style="fill: #ead4c8; stroke: #ead4c8; stroke-linecap: round"/>
   </g>
   <g id="patch_3">
    <path d="M 137.886165 950.928395 
Q 137.478688 763.141655 137.073637 576.472947 
" clip-path="url(#p3382bec31a)" style="fill: none; stroke: #e5d8d1; stroke-linecap: round"/>
    <path d="M 135.082322 580.477277 
L 137.073637 576.472947 
L 139.082312 580.468598 
L 135.082322 580.477277 
z
" clip-path="url(#p3382bec31a)" style="fill: #e5d8d1; stroke: #e5d8d1; stroke-linecap: round"/>
   </g>
   <g id="patch_4">
    <path d="M 111.939534 727.815138 
Q 119.282633 540.000274 126.582053 353.30259 
" clip-path="url(#p3382bec31a)" style="fill: none; stroke: #dfdbd9; stroke-linecap: round"/>
    <path d="M 124.427309 357.221401 
L 126.582053 353.30259 
L 128.424255 357.377672 
L 124.427309 357.221401 
z
" clip-path="url(#p3382bec31a)" style="fill: #dfdbd9; stroke: #dfdbd9; stroke-linecap: round"/>
   </g>
   <g id="patch_5">
    <path d="M 109.669292 727.79556 
Q 102.138748 428.43153 94.63632 130.185179 
" clip-path="url(#p3382bec31a)" style="fill: none; stroke: #f6bda2; stroke-linecap: round"/>
    <path d="M 92.737541 134.234209 
L 94.63632 130.185179 
L 96.736276 134.13362 
L 92.737541 134.234209 
z
" clip-path="url(#p3382bec31a)" style="fill: #f6bda2; stroke: #f6bda2; stroke-linecap: round"/>
   </g>
   <g id="patch_6">
    <path d="M 140.288503 616.245741 
Q 134.872287 484.215844 129.501898 353.303042 
" clip-path="url(#p3382bec31a)" style="fill: none; stroke: #d7dce3; stroke-linecap: round"/>
    <path d="M 127.667531 357.381656 
L 129.501898 353.303042 
L 131.66417 357.217704 
L 127.667531 357.381656 
z
" clip-path="url(#p3382bec31a)" style="fill: #d7dce3; stroke: #d7dce3; stroke-linecap: round"/>
   </g>
   <g id="patch_7">
    <path d="M 137.071206 575.352597 
Q 137.478683 763.139336 137.883734 949.808045 
" clip-path="url(#p3382bec31a)" style="fill: none; stroke: #e8d6cc; stroke-linecap: round"/>
    <path d="M 139.87505 945.803714 
L 137.883734 949.808045 
L 135.875059 945.812394 
L 139.87505 945.803714 
z
" clip-path="url(#p3382bec31a)" style="fill: #e8d6cc; stroke: #e8d6cc; stroke-linecap: round"/>
   </g>
   <g id="patch_8">
    <path d="M 135.571667 504.674642 
Q 132.500726 428.430626 129.474781 353.303738 
" clip-path="url(#p3382bec31a)" style="fill: none; stroke: #e8d6cc; stroke-linecap: round"/>
    <path d="M 127.637382 357.380988 
L 129.474781 353.303738 
L 131.634141 357.220007 
L 127.637382 357.380988 
z
" clip-path="url(#p3382bec31a)" style="fill: #e8d6cc; stroke: #e8d6cc; stroke-linecap: round"/>
   </g>
   <g id="patch_9">
    <path d="M 137.670171 463.76192 
Q 130.992901 651.570536 124.355356 838.261825 
" clip-path="url(#p3382bec31a)" style="fill: none; stroke: #f1cdba; stroke-linecap: round"/>
    <path d="M 126.496217 834.335413 
L 124.355356 838.261825 
L 122.498743 834.193288 
L 126.496217 834.335413 
z
" clip-path="url(#p3382bec31a)" style="fill: #f1cdba; stroke: #f1cdba; stroke-linecap: round"/>
   </g>
   <g id="patch_10">
    <path d="M 112.39791 240.639299 
Q 117.431508 540.000919 122.446309 838.244662 
" clip-path="url(#p3382bec31a)" style="fill: none; stroke: #edd2c3; stroke-linecap: round"/>
    <path d="M 124.378778 834.211603 
L 122.446309 838.244662 
L 120.379344 834.278851 
L 124.378778 834.211603 
z
" clip-path="url(#p3382bec31a)" style="fill: #edd2c3; stroke: #edd2c3; stroke-linecap: round"/>
   </g>
   <g id="patch_11">
    <path d="M 94.608115 129.063944 
Q 102.138659 428.427975 109.641087 726.674325 
" clip-path="url(#p3382bec31a)" style="fill: none; stroke: #e6d7cf; stroke-linecap: round"/>
    <path d="M 111.539866 722.625295 
L 109.641087 726.674325 
L 107.541131 722.725884 
L 111.539866 722.625295 
z
" clip-path="url(#p3382bec31a)" style="fill: #e6d7cf; stroke: #e6d7cf; stroke-linecap: round"/>
   </g>
   <g id="patch_12">
    <path d="M 96.751311 128.946476 
Q 117.728293 372.644451 138.609391 615.228512 
" clip-path="url(#p3382bec31a)" style="fill: none; stroke: #e0dbd8; stroke-linecap: round"/>
    <path d="M 140.25898 611.071727 
L 138.609391 615.228512 
L 136.273717 611.41477 
L 140.25898 611.071727 
z
" clip-path="url(#p3382bec31a)" style="fill: #e0dbd8; stroke: #e0dbd8; stroke-linecap: round"/>
   </g>
   <g id="patch_13">
    <path d="M 508.265369 763.140496 
Q 327.091019 763.140496 147.034704 763.140496 
" clip-path="url(#p3382bec31a)" style="fill: none; stroke: #f7ac8e; stroke-linecap: round"/>
    <path d="M 151.034704 765.140496 
L 147.034704 763.140496 
L 151.034704 761.140496 
L 151.034704 765.140496 
z
" clip-path="url(#p3382bec31a)" style="fill: #f7ac8e; stroke: #f7ac8e; stroke-linecap: round"/>
   </g>
   <g id="patch_14">
    <path d="M 509.553793 753.682663 
Q 342.678021 707.354935 176.879539 661.326283 
" clip-path="url(#p3382bec31a)" style="fill: none; stroke: #d7dce3; stroke-linecap: round"/>
    <path d="M 180.198767 664.323402 
L 176.879539 661.326283 
L 181.268771 660.469172 
L 180.198767 664.323402 
z
" clip-path="url(#p3382bec31a)" style="fill: #d7dce3; stroke: #d7dce3; stroke-linecap: round"/>
   </g>
   <g id="patch_15">
    <path d="M 523.90024 733.796615 
Q 318.66964 428.42878 114.062684 123.988882 
" clip-path="url(#p3382bec31a)" style="fill: none; stroke: #ead5c9; stroke-linecap: round"/>
    <path d="M 114.63396 128.42438 
L 114.062684 123.988882 
L 117.953848 126.19316 
L 114.63396 128.42438 
z
" clip-path="url(#p3382bec31a)" style="fill: #ead5c9; stroke: #ead5c9; stroke-linecap: round"/>
   </g>
   <g id="patch_16">
    <path d="M 544.133055 651.570248 
Q 360.61412 651.570248 178.213219 651.570248 
" clip-path="url(#p3382bec31a)" style="fill: none; stroke: #e67259; stroke-linecap: round"/>
    <path d="M 182.213219 653.570248 
L 178.213219 651.570248 
L 182.213219 649.570248 
L 182.213219 653.570248 
z
" clip-path="url(#p3382bec31a)" style="fill: #e67259; stroke: #e67259; stroke-linecap: round"/>
   </g>
   <g id="patch_17">
    <path d="M 551.091137 630.515484 
Q 353.750056 484.21552 157.307114 338.581398 
" clip-path="url(#p3382bec31a)" style="fill: none; stroke: #d3dbe7; stroke-linecap: round"/>
    <path d="M 159.329304 342.570226 
L 157.307114 338.581398 
L 161.711491 339.356943 
L 159.329304 342.570226 
z
" clip-path="url(#p3382bec31a)" style="fill: #d3dbe7; stroke: #d3dbe7; stroke-linecap: round"/>
   </g>
   <g id="patch_18">
    <path d="M 556.27431 624.908115 
Q 336.606243 372.645771 117.672394 121.226589 
" clip-path="url(#p3382bec31a)" style="fill: none; stroke: #d8dce2; stroke-linecap: round"/>
    <path d="M 118.790921 125.556589 
L 117.672394 121.226589 
L 121.80751 122.929767 
L 118.790921 125.556589 
z
" clip-path="url(#p3382bec31a)" style="fill: #d8dce2; stroke: #d8dce2; stroke-linecap: round"/>
   </g>
   <g id="patch_19">
    <path d="M 501.355407 340.008254 
Q 334.906789 484.214306 169.303182 627.688268 
" clip-path="url(#p3382bec31a)" style="fill: none; stroke: #cad8ef; stroke-linecap: round"/>
    <path d="M 173.635987 626.580658 
L 169.303182 627.688268 
L 171.016777 623.557458 
L 173.635987 626.580658 
z
" clip-path="url(#p3382bec31a)" style="fill: #cad8ef; stroke: #cad8ef; stroke-linecap: round"/>
   </g>
   <g id="patch_20">
    <path d="M 492.720156 316.859504 
Q 328.042399 316.859504 164.482675 316.859504 
" clip-path="url(#p3382bec31a)" style="fill: none; stroke: #ead4c8; stroke-linecap: round"/>
    <path d="M 168.482675 318.859504 
L 164.482675 316.859504 
L 168.482675 314.859504 
L 168.482675 318.859504 
z
" clip-path="url(#p3382bec31a)" style="fill: #ead4c8; stroke: #ead4c8; stroke-linecap: round"/>
   </g>
   <g id="patch_21">
    <path d="M 514.414686 122.619833 
Q 338.256584 372.645677 162.742427 621.757554 
" clip-path="url(#p3382bec31a)" style="fill: none; stroke: #d7dce3; stroke-linecap: round"/>
    <path d="M 166.681225 619.639569 
L 162.742427 621.757554 
L 163.411317 617.335724 
L 166.681225 619.639569 
z
" clip-path="url(#p3382bec31a)" style="fill: #d7dce3; stroke: #d7dce3; stroke-linecap: round"/>
   </g>
   <g id="patch_22">
    <path d="M 906.328511 865.196731 
Q 541.059195 763.140587 176.866674 661.385299 
" clip-path="url(#p3382bec31a)" style="fill: none; stroke: #d2dbe8; stroke-linecap: round"/>
    <path d="M 180.180942 664.387902 
L 176.866674 661.385299 
L 181.257317 660.535446 
L 180.180942 664.387902 
z
" clip-path="url(#p3382bec31a)" style="fill: #d2dbe8; stroke: #d2dbe8; stroke-linecap: round"/>
   </g>
   <g id="patch_23">
    <path d="M 935.892217 772.298701 
Q 554.002073 874.710937 173.191807 976.83358 
" clip-path="url(#p3382bec31a)" style="fill: none; stroke: #ecd3c5; stroke-linecap: round"/>
    <path d="M 177.573334 977.729245 
L 173.191807 976.83358 
L 176.537255 973.865756 
L 177.573334 977.729245 
z
" clip-path="url(#p3382bec31a)" style="fill: #ecd3c5; stroke: #ecd3c5; stroke-linecap: round"/>
   </g>
   <g id="patch_24">
    <path d="M 922.270833 651.570248 
Q 549.683114 651.570248 178.21343 651.570248 
" clip-path="url(#p3382bec31a)" style="fill: none; stroke: #e7d7ce; stroke-linecap: round"/>
    <path d="M 182.21343 653.570248 
L 178.21343 651.570248 
L 182.21343 649.570248 
L 182.21343 653.570248 
z
" clip-path="url(#p3382bec31a)" style="fill: #e7d7ce; stroke: #e7d7ce; stroke-linecap: round"/>
   </g>
   <g id="patch_25">
    <path d="M 924.834274 638.341114 
Q 542.814962 484.214655 161.832479 330.506507 
" clip-path="url(#p3382bec31a)" style="fill: none; stroke: #c4d5f3; stroke-linecap: round"/>
    <path d="M 164.793656 333.857839 
L 161.832479 330.506507 
L 166.290251 330.148364 
L 164.793656 333.857839 
z
" clip-path="url(#p3382bec31a)" style="fill: #c4d5f3; stroke: #c4d5f3; stroke-linecap: round"/>
   </g>
   <g id="patch_26">
    <path d="M 952.095774 437.461978 
Q 564.006783 540.000665 176.998733 642.253752 
" clip-path="url(#p3382bec31a)" style="fill: none; stroke: #e0dbd8; stroke-linecap: round"/>
    <path d="M 181.37692 643.165604 
L 176.998733 642.253752 
L 180.355126 639.298313 
L 181.37692 643.165604 
z
" clip-path="url(#p3382bec31a)" style="fill: #e0dbd8; stroke: #e0dbd8; stroke-linecap: round"/>
   </g>
   <g id="patch_27">
    <path d="M 942.527635 316.859504 
Q 552.945392 316.859504 164.481182 316.859504 
" clip-path="url(#p3382bec31a)" style="fill: none; stroke: #f7a889; stroke-linecap: round"/>
    <path d="M 168.481182 318.859504 
L 164.481182 316.859504 
L 168.481182 314.859504 
L 168.481182 318.859504 
z
" clip-path="url(#p3382bec31a)" style="fill: #f7a889; stroke: #f7a889; stroke-linecap: round"/>
   </g>
   <g id="patch_28">
    <path d="M 940.536477 113.473544 
Q 555.798529 372.645445 171.98785 631.192708 
" clip-path="url(#p3382bec31a)" style="fill: none; stroke: #d4dbe6; stroke-linecap: round"/>
    <path d="M 176.422734 630.616684 
L 171.98785 631.192708 
L 174.18796 627.299186 
L 176.422734 630.616684 
z
" clip-path="url(#p3382bec31a)" style="fill: #d4dbe6; stroke: #d4dbe6; stroke-linecap: round"/>
   </g>
   <g id="PathCollection_1">
    <defs>
     <path id="mc45ddfabe0" d="M 0 35.355339 
C 9.376346 35.355339 18.369923 31.630078 25 25 
C 31.630078 18.369923 35.355339 9.376346 35.355339 0 
C 35.355339 -9.376346 31.630078 -18.369923 25 -25 
C 18.369923 -31.630078 9.376346 -35.355339 0 -35.355339 
C -9.376346 -35.355339 -18.369923 -31.630078 -25 -25 
C -31.630078 -18.369923 -35.355339 -9.376346 -35.355339 0 
C -35.355339 9.376346 -31.630078 18.369923 -25 25 
C -18.369923 31.630078 -9.376346 35.355339 0 35.355339 
z
" style="stroke: #add8e6"/>
    </defs>
    <g clip-path="url(#p3382bec31a)">
     <use xlink:href="#mc45ddfabe0" x="137.962876" y="986.280992" style="fill: #add8e6; stroke: #add8e6"/>
     <use xlink:href="#mc45ddfabe0" x="123.059466" y="874.710744" style="fill: #add8e6; stroke: #add8e6"/>
     <use xlink:href="#mc45ddfabe0" x="110.558399" y="763.140496" style="fill: #add8e6; stroke: #add8e6"/>
     <use xlink:href="#mc45ddfabe0" x="141.737608" y="651.570248" style="fill: #add8e6; stroke: #add8e6"/>
     <use xlink:href="#mc45ddfabe0" x="136.994495" y="540" style="fill: #add8e6; stroke: #add8e6"/>
     <use xlink:href="#mc45ddfabe0" x="138.926356" y="428.429752" style="fill: #add8e6; stroke: #add8e6"/>
     <use xlink:href="#mc45ddfabe0" x="128.006888" y="316.859504" style="fill: #add8e6; stroke: #add8e6"/>
     <use xlink:href="#mc45ddfabe0" x="111.803519" y="205.289256" style="fill: #add8e6; stroke: #add8e6"/>
     <use xlink:href="#mc45ddfabe0" x="93.719008" y="93.719008" style="fill: #add8e6; stroke: #add8e6"/>
     <use xlink:href="#mc45ddfabe0" x="578.574773" y="986.280992" style="fill: #add8e6; stroke: #add8e6"/>
     <use xlink:href="#mc45ddfabe0" x="559.875312" y="874.710744" style="fill: #add8e6; stroke: #add8e6"/>
     <use xlink:href="#mc45ddfabe0" x="543.621578" y="763.140496" style="fill: #add8e6; stroke: #add8e6"/>
     <use xlink:href="#mc45ddfabe0" x="579.491486" y="651.570248" style="fill: #add8e6; stroke: #add8e6"/>
     <use xlink:href="#mc45ddfabe0" x="556.444655" y="540" style="fill: #add8e6; stroke: #add8e6"/>
     <use xlink:href="#mc45ddfabe0" x="521.32537" y="428.429752" style="fill: #add8e6; stroke: #add8e6"/>
     <use xlink:href="#mc45ddfabe0" x="528.074656" y="316.859504" style="fill: #add8e6; stroke: #add8e6"/>
     <use xlink:href="#mc45ddfabe0" x="500.217378" y="205.289256" style="fill: #add8e6; stroke: #add8e6"/>
     <use xlink:href="#mc45ddfabe0" x="534.777039" y="93.719008" style="fill: #add8e6; stroke: #add8e6"/>
     <use xlink:href="#mc45ddfabe0" x="945.671987" y="986.280992" style="fill: #add8e6; stroke: #add8e6"/>
     <use xlink:href="#mc45ddfabe0" x="940.38013" y="874.710744" style="fill: #add8e6; stroke: #add8e6"/>
     <use xlink:href="#mc45ddfabe0" x="970.04271" y="763.140496" style="fill: #add8e6; stroke: #add8e6"/>
     <use xlink:href="#mc45ddfabe0" x="957.624131" y="651.570248" style="fill: #add8e6; stroke: #add8e6"/>
     <use xlink:href="#mc45ddfabe0" x="953.659502" y="540" style="fill: #add8e6; stroke: #add8e6"/>
     <use xlink:href="#mc45ddfabe0" x="986.280992" y="428.429752" style="fill: #add8e6; stroke: #add8e6"/>
     <use xlink:href="#mc45ddfabe0" x="977.881815" y="316.859504" style="fill: #add8e6; stroke: #add8e6"/>
     <use xlink:href="#mc45ddfabe0" x="992.389607" y="205.289256" style="fill: #add8e6; stroke: #add8e6"/>
     <use xlink:href="#mc45ddfabe0" x="969.861877" y="93.719008" style="fill: #add8e6; stroke: #add8e6"/>
    </g>
   </g>
   <g id="text_1">
    <g clip-path="url(#p3382bec31a)">
     <!-- Mood-0 -->
     <g transform="translate(126.807564 987.936617)scale(0.06 -0.06)">
      <defs>
       <path id="DejaVuSans-4d" d="M 628 4666 
L 1569 4666 
L 2759 1491 
L 3956 4666 
L 4897 4666 
L 4897 0 
L 4281 0 
L 4281 4097 
L 3078 897 
L 2444 897 
L 1241 4097 
L 1241 0 
L 628 0 
L 628 4666 
z
" transform="scale(0.015625)"/>
       <path id="DejaVuSans-6f" d="M 1959 3097 
Q 1497 3097 1228 2736 
Q 959 2375 959 1747 
Q 959 1119 1226 758 
Q 1494 397 1959 397 
Q 2419 397 2687 759 
Q 2956 1122 2956 1747 
Q 2956 2369 2687 2733 
Q 2419 3097 1959 3097 
z
M 1959 3584 
Q 2709 3584 3137 3096 
Q 3566 2609 3566 1747 
Q 3566 888 3137 398 
Q 2709 -91 1959 -91 
Q 1206 -91 779 398 
Q 353 888 353 1747 
Q 353 2609 779 3096 
Q 1206 3584 1959 3584 
z
" transform="scale(0.015625)"/>
       <path id="DejaVuSans-64" d="M 2906 2969 
L 2906 4863 
L 3481 4863 
L 3481 0 
L 2906 0 
L 2906 525 
Q 2725 213 2448 61 
Q 2172 -91 1784 -91 
Q 1150 -91 751 415 
Q 353 922 353 1747 
Q 353 2572 751 3078 
Q 1150 3584 1784 3584 
Q 2172 3584 2448 3432 
Q 2725 3281 2906 2969 
z
M 947 1747 
Q 947 1113 1208 752 
Q 1469 391 1925 391 
Q 2381 391 2643 752 
Q 2906 1113 2906 1747 
Q 2906 2381 2643 2742 
Q 2381 3103 1925 3103 
Q 1469 3103 1208 2742 
Q 947 2381 947 1747 
z
" transform="scale(0.015625)"/>
       <path id="DejaVuSans-2d" d="M 313 2009 
L 1997 2009 
L 1997 1497 
L 313 1497 
L 313 2009 
z
" transform="scale(0.015625)"/>
       <path id="DejaVuSans-30" d="M 2034 4250 
Q 1547 4250 1301 3770 
Q 1056 3291 1056 2328 
Q 1056 1369 1301 889 
Q 1547 409 2034 409 
Q 2525 409 2770 889 
Q 3016 1369 3016 2328 
Q 3016 3291 2770 3770 
Q 2525 4250 2034 4250 
z
M 2034 4750 
Q 2819 4750 3233 4129 
Q 3647 3509 3647 2328 
Q 3647 1150 3233 529 
Q 2819 -91 2034 -91 
Q 1250 -91 836 529 
Q 422 1150 422 2328 
Q 422 3509 836 4129 
Q 1250 4750 2034 4750 
z
" transform="scale(0.015625)"/>
      </defs>
      <use xlink:href="#DejaVuSans-4d"/>
      <use xlink:href="#DejaVuSans-6f" x="86.279297"/>
      <use xlink:href="#DejaVuSans-6f" x="147.460938"/>
      <use xlink:href="#DejaVuSans-64" x="208.642578"/>
      <use xlink:href="#DejaVuSans-2d" x="272.119141"/>
      <use xlink:href="#DejaVuSans-30" x="308.203125"/>
     </g>
    </g>
   </g>
   <g id="text_2">
    <g clip-path="url(#p3382bec31a)">
     <!-- Energy-0 -->
     <g transform="translate(109.617122 876.366369)scale(0.06 -0.06)">
      <defs>
       <path id="DejaVuSans-45" d="M 628 4666 
L 3578 4666 
L 3578 4134 
L 1259 4134 
L 1259 2753 
L 3481 2753 
L 3481 2222 
L 1259 2222 
L 1259 531 
L 3634 531 
L 3634 0 
L 628 0 
L 628 4666 
z
" transform="scale(0.015625)"/>
       <path id="DejaVuSans-6e" d="M 3513 2113 
L 3513 0 
L 2938 0 
L 2938 2094 
Q 2938 2591 2744 2837 
Q 2550 3084 2163 3084 
Q 1697 3084 1428 2787 
Q 1159 2491 1159 1978 
L 1159 0 
L 581 0 
L 581 3500 
L 1159 3500 
L 1159 2956 
Q 1366 3272 1645 3428 
Q 1925 3584 2291 3584 
Q 2894 3584 3203 3211 
Q 3513 2838 3513 2113 
z
" transform="scale(0.015625)"/>
       <path id="DejaVuSans-65" d="M 3597 1894 
L 3597 1613 
L 953 1613 
Q 991 1019 1311 708 
Q 1631 397 2203 397 
Q 2534 397 2845 478 
Q 3156 559 3463 722 
L 3463 178 
Q 3153 47 2828 -22 
Q 2503 -91 2169 -91 
Q 1331 -91 842 396 
Q 353 884 353 1716 
Q 353 2575 817 3079 
Q 1281 3584 2069 3584 
Q 2775 3584 3186 3129 
Q 3597 2675 3597 1894 
z
M 3022 2063 
Q 3016 2534 2758 2815 
Q 2500 3097 2075 3097 
Q 1594 3097 1305 2825 
Q 1016 2553 972 2059 
L 3022 2063 
z
" transform="scale(0.015625)"/>
       <path id="DejaVuSans-72" d="M 2631 2963 
Q 2534 3019 2420 3045 
Q 2306 3072 2169 3072 
Q 1681 3072 1420 2755 
Q 1159 2438 1159 1844 
L 1159 0 
L 581 0 
L 581 3500 
L 1159 3500 
L 1159 2956 
Q 1341 3275 1631 3429 
Q 1922 3584 2338 3584 
Q 2397 3584 2469 3576 
Q 2541 3569 2628 3553 
L 2631 2963 
z
" transform="scale(0.015625)"/>
       <path id="DejaVuSans-67" d="M 2906 1791 
Q 2906 2416 2648 2759 
Q 2391 3103 1925 3103 
Q 1463 3103 1205 2759 
Q 947 2416 947 1791 
Q 947 1169 1205 825 
Q 1463 481 1925 481 
Q 2391 481 2648 825 
Q 2906 1169 2906 1791 
z
M 3481 434 
Q 3481 -459 3084 -895 
Q 2688 -1331 1869 -1331 
Q 1566 -1331 1297 -1286 
Q 1028 -1241 775 -1147 
L 775 -588 
Q 1028 -725 1275 -790 
Q 1522 -856 1778 -856 
Q 2344 -856 2625 -561 
Q 2906 -266 2906 331 
L 2906 616 
Q 2728 306 2450 153 
Q 2172 0 1784 0 
Q 1141 0 747 490 
Q 353 981 353 1791 
Q 353 2603 747 3093 
Q 1141 3584 1784 3584 
Q 2172 3584 2450 3431 
Q 2728 3278 2906 2969 
L 2906 3500 
L 3481 3500 
L 3481 434 
z
" transform="scale(0.015625)"/>
       <path id="DejaVuSans-79" d="M 2059 -325 
Q 1816 -950 1584 -1140 
Q 1353 -1331 966 -1331 
L 506 -1331 
L 506 -850 
L 844 -850 
Q 1081 -850 1212 -737 
Q 1344 -625 1503 -206 
L 1606 56 
L 191 3500 
L 800 3500 
L 1894 763 
L 2988 3500 
L 3597 3500 
L 2059 -325 
z
" transform="scale(0.015625)"/>
      </defs>
      <use xlink:href="#DejaVuSans-45"/>
      <use xlink:href="#DejaVuSans-6e" x="63.183594"/>
      <use xlink:href="#DejaVuSans-65" x="126.5625"/>
      <use xlink:href="#DejaVuSans-72" x="188.085938"/>
      <use xlink:href="#DejaVuSans-67" x="227.449219"/>
      <use xlink:href="#DejaVuSans-79" x="290.925781"/>
      <use xlink:href="#DejaVuSans-2d" x="348.355469"/>
      <use xlink:href="#DejaVuSans-30" x="384.439453"/>
     </g>
    </g>
   </g>
   <g id="text_3">
    <g clip-path="url(#p3382bec31a)">
     <!-- Deep_work-0 -->
     <g transform="translate(90.901368 764.712683)scale(0.06 -0.06)">
      <defs>
       <path id="DejaVuSans-44" d="M 1259 4147 
L 1259 519 
L 2022 519 
Q 2988 519 3436 956 
Q 3884 1394 3884 2338 
Q 3884 3275 3436 3711 
Q 2988 4147 2022 4147 
L 1259 4147 
z
M 628 4666 
L 1925 4666 
Q 3281 4666 3915 4102 
Q 4550 3538 4550 2338 
Q 4550 1131 3912 565 
Q 3275 0 1925 0 
L 628 0 
L 628 4666 
z
" transform="scale(0.015625)"/>
       <path id="DejaVuSans-70" d="M 1159 525 
L 1159 -1331 
L 581 -1331 
L 581 3500 
L 1159 3500 
L 1159 2969 
Q 1341 3281 1617 3432 
Q 1894 3584 2278 3584 
Q 2916 3584 3314 3078 
Q 3713 2572 3713 1747 
Q 3713 922 3314 415 
Q 2916 -91 2278 -91 
Q 1894 -91 1617 61 
Q 1341 213 1159 525 
z
M 3116 1747 
Q 3116 2381 2855 2742 
Q 2594 3103 2138 3103 
Q 1681 3103 1420 2742 
Q 1159 2381 1159 1747 
Q 1159 1113 1420 752 
Q 1681 391 2138 391 
Q 2594 391 2855 752 
Q 3116 1113 3116 1747 
z
" transform="scale(0.015625)"/>
       <path id="DejaVuSans-5f" d="M 3263 -1063 
L 3263 -1509 
L -63 -1509 
L -63 -1063 
L 3263 -1063 
z
" transform="scale(0.015625)"/>
       <path id="DejaVuSans-77" d="M 269 3500 
L 844 3500 
L 1563 769 
L 2278 3500 
L 2956 3500 
L 3675 769 
L 4391 3500 
L 4966 3500 
L 4050 0 
L 3372 0 
L 2619 2869 
L 1863 0 
L 1184 0 
L 269 3500 
z
" transform="scale(0.015625)"/>
       <path id="DejaVuSans-6b" d="M 581 4863 
L 1159 4863 
L 1159 1991 
L 2875 3500 
L 3609 3500 
L 1753 1863 
L 3688 0 
L 2938 0 
L 1159 1709 
L 1159 0 
L 581 0 
L 581 4863 
z
" transform="scale(0.015625)"/>
      </defs>
      <use xlink:href="#DejaVuSans-44"/>
      <use xlink:href="#DejaVuSans-65" x="77.001953"/>
      <use xlink:href="#DejaVuSans-65" x="138.525391"/>
      <use xlink:href="#DejaVuSans-70" x="200.048828"/>
      <use xlink:href="#DejaVuSans-5f" x="263.525391"/>
      <use xlink:href="#DejaVuSans-77" x="313.525391"/>
      <use xlink:href="#DejaVuSans-6f" x="395.3125"/>
      <use xlink:href="#DejaVuSans-72" x="456.494141"/>
      <use xlink:href="#DejaVuSans-6b" x="497.607422"/>
      <use xlink:href="#DejaVuSans-2d" x="555.517578"/>
      <use xlink:href="#DejaVuSans-30" x="591.601562"/>
     </g>
    </g>
   </g>
   <g id="text_4">
    <g clip-path="url(#p3382bec31a)">
     <!-- Stoicism-0 -->
     <g transform="translate(126.028858 653.225873)scale(0.06 -0.06)">
      <defs>
       <path id="DejaVuSans-53" d="M 3425 4513 
L 3425 3897 
Q 3066 4069 2747 4153 
Q 2428 4238 2131 4238 
Q 1616 4238 1336 4038 
Q 1056 3838 1056 3469 
Q 1056 3159 1242 3001 
Q 1428 2844 1947 2747 
L 2328 2669 
Q 3034 2534 3370 2195 
Q 3706 1856 3706 1288 
Q 3706 609 3251 259 
Q 2797 -91 1919 -91 
Q 1588 -91 1214 -16 
Q 841 59 441 206 
L 441 856 
Q 825 641 1194 531 
Q 1563 422 1919 422 
Q 2459 422 2753 634 
Q 3047 847 3047 1241 
Q 3047 1584 2836 1778 
Q 2625 1972 2144 2069 
L 1759 2144 
Q 1053 2284 737 2584 
Q 422 2884 422 3419 
Q 422 4038 858 4394 
Q 1294 4750 2059 4750 
Q 2388 4750 2728 4690 
Q 3069 4631 3425 4513 
z
" transform="scale(0.015625)"/>
       <path id="DejaVuSans-74" d="M 1172 4494 
L 1172 3500 
L 2356 3500 
L 2356 3053 
L 1172 3053 
L 1172 1153 
Q 1172 725 1289 603 
Q 1406 481 1766 481 
L 2356 481 
L 2356 0 
L 1766 0 
Q 1100 0 847 248 
Q 594 497 594 1153 
L 594 3053 
L 172 3053 
L 172 3500 
L 594 3500 
L 594 4494 
L 1172 4494 
z
" transform="scale(0.015625)"/>
       <path id="DejaVuSans-69" d="M 603 3500 
L 1178 3500 
L 1178 0 
L 603 0 
L 603 3500 
z
M 603 4863 
L 1178 4863 
L 1178 4134 
L 603 4134 
L 603 4863 
z
" transform="scale(0.015625)"/>
       <path id="DejaVuSans-63" d="M 3122 3366 
L 3122 2828 
Q 2878 2963 2633 3030 
Q 2388 3097 2138 3097 
Q 1578 3097 1268 2742 
Q 959 2388 959 1747 
Q 959 1106 1268 751 
Q 1578 397 2138 397 
Q 2388 397 2633 464 
Q 2878 531 3122 666 
L 3122 134 
Q 2881 22 2623 -34 
Q 2366 -91 2075 -91 
Q 1284 -91 818 406 
Q 353 903 353 1747 
Q 353 2603 823 3093 
Q 1294 3584 2113 3584 
Q 2378 3584 2631 3529 
Q 2884 3475 3122 3366 
z
" transform="scale(0.015625)"/>
       <path id="DejaVuSans-73" d="M 2834 3397 
L 2834 2853 
Q 2591 2978 2328 3040 
Q 2066 3103 1784 3103 
Q 1356 3103 1142 2972 
Q 928 2841 928 2578 
Q 928 2378 1081 2264 
Q 1234 2150 1697 2047 
L 1894 2003 
Q 2506 1872 2764 1633 
Q 3022 1394 3022 966 
Q 3022 478 2636 193 
Q 2250 -91 1575 -91 
Q 1294 -91 989 -36 
Q 684 19 347 128 
L 347 722 
Q 666 556 975 473 
Q 1284 391 1588 391 
Q 1994 391 2212 530 
Q 2431 669 2431 922 
Q 2431 1156 2273 1281 
Q 2116 1406 1581 1522 
L 1381 1569 
Q 847 1681 609 1914 
Q 372 2147 372 2553 
Q 372 3047 722 3315 
Q 1072 3584 1716 3584 
Q 2034 3584 2315 3537 
Q 2597 3491 2834 3397 
z
" transform="scale(0.015625)"/>
       <path id="DejaVuSans-6d" d="M 3328 2828 
Q 3544 3216 3844 3400 
Q 4144 3584 4550 3584 
Q 5097 3584 5394 3201 
Q 5691 2819 5691 2113 
L 5691 0 
L 5113 0 
L 5113 2094 
Q 5113 2597 4934 2840 
Q 4756 3084 4391 3084 
Q 3944 3084 3684 2787 
Q 3425 2491 3425 1978 
L 3425 0 
L 2847 0 
L 2847 2094 
Q 2847 2600 2669 2842 
Q 2491 3084 2119 3084 
Q 1678 3084 1418 2786 
Q 1159 2488 1159 1978 
L 1159 0 
L 581 0 
L 581 3500 
L 1159 3500 
L 1159 2956 
Q 1356 3278 1631 3431 
Q 1906 3584 2284 3584 
Q 2666 3584 2933 3390 
Q 3200 3197 3328 2828 
z
" transform="scale(0.015625)"/>
      </defs>
      <use xlink:href="#DejaVuSans-53"/>
      <use xlink:href="#DejaVuSans-74" x="63.476562"/>
      <use xlink:href="#DejaVuSans-6f" x="102.685547"/>
      <use xlink:href="#DejaVuSans-69" x="163.867188"/>
      <use xlink:href="#DejaVuSans-63" x="191.650391"/>
      <use xlink:href="#DejaVuSans-69" x="246.630859"/>
      <use xlink:href="#DejaVuSans-73" x="274.414062"/>
      <use xlink:href="#DejaVuSans-6d" x="326.513672"/>
      <use xlink:href="#DejaVuSans-2d" x="423.925781"/>
      <use xlink:href="#DejaVuSans-30" x="460.009766"/>
     </g>
    </g>
   </g>
   <g id="text_5">
    <g clip-path="url(#p3382bec31a)">
     <!-- Optimization_power-0 -->
     <g transform="translate(104.231214 541.572188)scale(0.06 -0.06)">
      <defs>
       <path id="DejaVuSans-4f" d="M 2522 4238 
Q 1834 4238 1429 3725 
Q 1025 3213 1025 2328 
Q 1025 1447 1429 934 
Q 1834 422 2522 422 
Q 3209 422 3611 934 
Q 4013 1447 4013 2328 
Q 4013 3213 3611 3725 
Q 3209 4238 2522 4238 
z
M 2522 4750 
Q 3503 4750 4090 4092 
Q 4678 3434 4678 2328 
Q 4678 1225 4090 567 
Q 3503 -91 2522 -91 
Q 1538 -91 948 565 
Q 359 1222 359 2328 
Q 359 3434 948 4092 
Q 1538 4750 2522 4750 
z
" transform="scale(0.015625)"/>
       <path id="DejaVuSans-7a" d="M 353 3500 
L 3084 3500 
L 3084 2975 
L 922 459 
L 3084 459 
L 3084 0 
L 275 0 
L 275 525 
L 2438 3041 
L 353 3041 
L 353 3500 
z
" transform="scale(0.015625)"/>
       <path id="DejaVuSans-61" d="M 2194 1759 
Q 1497 1759 1228 1600 
Q 959 1441 959 1056 
Q 959 750 1161 570 
Q 1363 391 1709 391 
Q 2188 391 2477 730 
Q 2766 1069 2766 1631 
L 2766 1759 
L 2194 1759 
z
M 3341 1997 
L 3341 0 
L 2766 0 
L 2766 531 
Q 2569 213 2275 61 
Q 1981 -91 1556 -91 
Q 1019 -91 701 211 
Q 384 513 384 1019 
Q 384 1609 779 1909 
Q 1175 2209 1959 2209 
L 2766 2209 
L 2766 2266 
Q 2766 2663 2505 2880 
Q 2244 3097 1772 3097 
Q 1472 3097 1187 3025 
Q 903 2953 641 2809 
L 641 3341 
Q 956 3463 1253 3523 
Q 1550 3584 1831 3584 
Q 2591 3584 2966 3190 
Q 3341 2797 3341 1997 
z
" transform="scale(0.015625)"/>
      </defs>
      <use xlink:href="#DejaVuSans-4f"/>
      <use xlink:href="#DejaVuSans-70" x="78.710938"/>
      <use xlink:href="#DejaVuSans-74" x="142.1875"/>
      <use xlink:href="#DejaVuSans-69" x="181.396484"/>
      <use xlink:href="#DejaVuSans-6d" x="209.179688"/>
      <use xlink:href="#DejaVuSans-69" x="306.591797"/>
      <use xlink:href="#DejaVuSans-7a" x="334.375"/>
      <use xlink:href="#DejaVuSans-61" x="386.865234"/>
      <use xlink:href="#DejaVuSans-74" x="448.144531"/>
      <use xlink:href="#DejaVuSans-69" x="487.353516"/>
      <use xlink:href="#DejaVuSans-6f" x="515.136719"/>
      <use xlink:href="#DejaVuSans-6e" x="576.318359"/>
      <use xlink:href="#DejaVuSans-5f" x="639.697266"/>
      <use xlink:href="#DejaVuSans-70" x="689.697266"/>
      <use xlink:href="#DejaVuSans-6f" x="753.173828"/>
      <use xlink:href="#DejaVuSans-77" x="814.355469"/>
      <use xlink:href="#DejaVuSans-65" x="896.142578"/>
      <use xlink:href="#DejaVuSans-72" x="957.666016"/>
      <use xlink:href="#DejaVuSans-2d" x="992.404297"/>
      <use xlink:href="#DejaVuSans-30" x="1028.488281"/>
     </g>
    </g>
   </g>
   <g id="text_6">
    <g clip-path="url(#p3382bec31a)">
     <!-- Sleep-0 -->
     <g transform="translate(127.600888 430.085377)scale(0.06 -0.06)">
      <defs>
       <path id="DejaVuSans-6c" d="M 603 4863 
L 1178 4863 
L 1178 0 
L 603 0 
L 603 4863 
z
" transform="scale(0.015625)"/>
      </defs>
      <use xlink:href="#DejaVuSans-53"/>
      <use xlink:href="#DejaVuSans-6c" x="63.476562"/>
      <use xlink:href="#DejaVuSans-65" x="91.259766"/>
      <use xlink:href="#DejaVuSans-65" x="152.783203"/>
      <use xlink:href="#DejaVuSans-70" x="214.306641"/>
      <use xlink:href="#DejaVuSans-2d" x="277.783203"/>
      <use xlink:href="#DejaVuSans-30" x="313.867188"/>
     </g>
    </g>
   </g>
   <g id="text_7">
    <g clip-path="url(#p3382bec31a)">
     <!-- Meditation-0 -->
     <g transform="translate(109.082513 318.515129)scale(0.06 -0.06)">
      <use xlink:href="#DejaVuSans-4d"/>
      <use xlink:href="#DejaVuSans-65" x="86.279297"/>
      <use xlink:href="#DejaVuSans-64" x="147.802734"/>
      <use xlink:href="#DejaVuSans-69" x="211.279297"/>
      <use xlink:href="#DejaVuSans-74" x="239.0625"/>
      <use xlink:href="#DejaVuSans-61" x="278.271484"/>
      <use xlink:href="#DejaVuSans-74" x="339.550781"/>
      <use xlink:href="#DejaVuSans-69" x="378.759766"/>
      <use xlink:href="#DejaVuSans-6f" x="406.542969"/>
      <use xlink:href="#DejaVuSans-6e" x="467.724609"/>
      <use xlink:href="#DejaVuSans-2d" x="531.103516"/>
      <use xlink:href="#DejaVuSans-30" x="567.1875"/>
     </g>
    </g>
   </g>
   <g id="text_8">
    <g clip-path="url(#p3382bec31a)">
     <!-- Sport-0 -->
     <g transform="translate(100.758363 206.944881)scale(0.06 -0.06)">
      <use xlink:href="#DejaVuSans-53"/>
      <use xlink:href="#DejaVuSans-70" x="63.476562"/>
      <use xlink:href="#DejaVuSans-6f" x="126.953125"/>
      <use xlink:href="#DejaVuSans-72" x="188.134766"/>
      <use xlink:href="#DejaVuSans-74" x="229.248047"/>
      <use xlink:href="#DejaVuSans-2d" x="268.457031"/>
      <use xlink:href="#DejaVuSans-30" x="304.541016"/>
     </g>
    </g>
   </g>
   <g id="text_9">
    <g clip-path="url(#p3382bec31a)">
     <!-- Social_interactions-0 -->
     <g transform="translate(62.545727 95.291196)scale(0.06 -0.06)">
      <use xlink:href="#DejaVuSans-53"/>
      <use xlink:href="#DejaVuSans-6f" x="63.476562"/>
      <use xlink:href="#DejaVuSans-63" x="124.658203"/>
      <use xlink:href="#DejaVuSans-69" x="179.638672"/>
      <use xlink:href="#DejaVuSans-61" x="207.421875"/>
      <use xlink:href="#DejaVuSans-6c" x="268.701172"/>
      <use xlink:href="#DejaVuSans-5f" x="296.484375"/>
      <use xlink:href="#DejaVuSans-69" x="346.484375"/>
      <use xlink:href="#DejaVuSans-6e" x="374.267578"/>
      <use xlink:href="#DejaVuSans-74" x="437.646484"/>
      <use xlink:href="#DejaVuSans-65" x="476.855469"/>
      <use xlink:href="#DejaVuSans-72" x="538.378906"/>
      <use xlink:href="#DejaVuSans-61" x="579.492188"/>
      <use xlink:href="#DejaVuSans-63" x="640.771484"/>
      <use xlink:href="#DejaVuSans-74" x="695.751953"/>
      <use xlink:href="#DejaVuSans-69" x="734.960938"/>
      <use xlink:href="#DejaVuSans-6f" x="762.744141"/>
      <use xlink:href="#DejaVuSans-6e" x="823.925781"/>
      <use xlink:href="#DejaVuSans-73" x="887.304688"/>
      <use xlink:href="#DejaVuSans-2d" x="939.404297"/>
      <use xlink:href="#DejaVuSans-30" x="975.488281"/>
     </g>
    </g>
   </g>
   <g id="text_10">
    <g clip-path="url(#p3382bec31a)">
     <!-- Mood-1 -->
     <g transform="translate(567.419461 987.936617)scale(0.06 -0.06)">
      <defs>
       <path id="DejaVuSans-31" d="M 794 531 
L 1825 531 
L 1825 4091 
L 703 3866 
L 703 4441 
L 1819 4666 
L 2450 4666 
L 2450 531 
L 3481 531 
L 3481 0 
L 794 0 
L 794 531 
z
" transform="scale(0.015625)"/>
      </defs>
      <use xlink:href="#DejaVuSans-4d"/>
      <use xlink:href="#DejaVuSans-6f" x="86.279297"/>
      <use xlink:href="#DejaVuSans-6f" x="147.460938"/>
      <use xlink:href="#DejaVuSans-64" x="208.642578"/>
      <use xlink:href="#DejaVuSans-2d" x="272.119141"/>
      <use xlink:href="#DejaVuSans-31" x="308.203125"/>
     </g>
    </g>
   </g>
   <g id="text_11">
    <g clip-path="url(#p3382bec31a)">
     <!-- Energy-1 -->
     <g transform="translate(546.432969 876.366369)scale(0.06 -0.06)">
      <use xlink:href="#DejaVuSans-45"/>
      <use xlink:href="#DejaVuSans-6e" x="63.183594"/>
      <use xlink:href="#DejaVuSans-65" x="126.5625"/>
      <use xlink:href="#DejaVuSans-72" x="188.085938"/>
      <use xlink:href="#DejaVuSans-67" x="227.449219"/>
      <use xlink:href="#DejaVuSans-79" x="290.925781"/>
      <use xlink:href="#DejaVuSans-2d" x="348.355469"/>
      <use xlink:href="#DejaVuSans-31" x="384.439453"/>
     </g>
    </g>
   </g>
   <g id="text_12">
    <g clip-path="url(#p3382bec31a)">
     <!-- Deep_work-1 -->
     <g transform="translate(523.964547 764.712683)scale(0.06 -0.06)">
      <use xlink:href="#DejaVuSans-44"/>
      <use xlink:href="#DejaVuSans-65" x="77.001953"/>
      <use xlink:href="#DejaVuSans-65" x="138.525391"/>
      <use xlink:href="#DejaVuSans-70" x="200.048828"/>
      <use xlink:href="#DejaVuSans-5f" x="263.525391"/>
      <use xlink:href="#DejaVuSans-77" x="313.525391"/>
      <use xlink:href="#DejaVuSans-6f" x="395.3125"/>
      <use xlink:href="#DejaVuSans-72" x="456.494141"/>
      <use xlink:href="#DejaVuSans-6b" x="497.607422"/>
      <use xlink:href="#DejaVuSans-2d" x="555.517578"/>
      <use xlink:href="#DejaVuSans-31" x="591.601562"/>
     </g>
    </g>
   </g>
   <g id="text_13">
    <g clip-path="url(#p3382bec31a)">
     <!-- Stoicism-1 -->
     <g transform="translate(563.782736 653.225873)scale(0.06 -0.06)">
      <use xlink:href="#DejaVuSans-53"/>
      <use xlink:href="#DejaVuSans-74" x="63.476562"/>
      <use xlink:href="#DejaVuSans-6f" x="102.685547"/>
      <use xlink:href="#DejaVuSans-69" x="163.867188"/>
      <use xlink:href="#DejaVuSans-63" x="191.650391"/>
      <use xlink:href="#DejaVuSans-69" x="246.630859"/>
      <use xlink:href="#DejaVuSans-73" x="274.414062"/>
      <use xlink:href="#DejaVuSans-6d" x="326.513672"/>
      <use xlink:href="#DejaVuSans-2d" x="423.925781"/>
      <use xlink:href="#DejaVuSans-31" x="460.009766"/>
     </g>
    </g>
   </g>
   <g id="text_14">
    <g clip-path="url(#p3382bec31a)">
     <!-- Optimization_power-1 -->
     <g transform="translate(523.681373 541.572188)scale(0.06 -0.06)">
      <use xlink:href="#DejaVuSans-4f"/>
      <use xlink:href="#DejaVuSans-70" x="78.710938"/>
      <use xlink:href="#DejaVuSans-74" x="142.1875"/>
      <use xlink:href="#DejaVuSans-69" x="181.396484"/>
      <use xlink:href="#DejaVuSans-6d" x="209.179688"/>
      <use xlink:href="#DejaVuSans-69" x="306.591797"/>
      <use xlink:href="#DejaVuSans-7a" x="334.375"/>
      <use xlink:href="#DejaVuSans-61" x="386.865234"/>
      <use xlink:href="#DejaVuSans-74" x="448.144531"/>
      <use xlink:href="#DejaVuSans-69" x="487.353516"/>
      <use xlink:href="#DejaVuSans-6f" x="515.136719"/>
      <use xlink:href="#DejaVuSans-6e" x="576.318359"/>
      <use xlink:href="#DejaVuSans-5f" x="639.697266"/>
      <use xlink:href="#DejaVuSans-70" x="689.697266"/>
      <use xlink:href="#DejaVuSans-6f" x="753.173828"/>
      <use xlink:href="#DejaVuSans-77" x="814.355469"/>
      <use xlink:href="#DejaVuSans-65" x="896.142578"/>
      <use xlink:href="#DejaVuSans-72" x="957.666016"/>
      <use xlink:href="#DejaVuSans-2d" x="992.404297"/>
      <use xlink:href="#DejaVuSans-31" x="1028.488281"/>
     </g>
    </g>
   </g>
   <g id="text_15">
    <g clip-path="url(#p3382bec31a)">
     <!-- Sleep-1 -->
     <g transform="translate(509.999902 430.085377)scale(0.06 -0.06)">
      <use xlink:href="#DejaVuSans-53"/>
      <use xlink:href="#DejaVuSans-6c" x="63.476562"/>
      <use xlink:href="#DejaVuSans-65" x="91.259766"/>
      <use xlink:href="#DejaVuSans-65" x="152.783203"/>
      <use xlink:href="#DejaVuSans-70" x="214.306641"/>
      <use xlink:href="#DejaVuSans-2d" x="277.783203"/>
      <use xlink:href="#DejaVuSans-31" x="313.867188"/>
     </g>
    </g>
   </g>
   <g id="text_16">
    <g clip-path="url(#p3382bec31a)">
     <!-- Meditation-1 -->
     <g transform="translate(509.150281 318.515129)scale(0.06 -0.06)">
      <use xlink:href="#DejaVuSans-4d"/>
      <use xlink:href="#DejaVuSans-65" x="86.279297"/>
      <use xlink:href="#DejaVuSans-64" x="147.802734"/>
      <use xlink:href="#DejaVuSans-69" x="211.279297"/>
      <use xlink:href="#DejaVuSans-74" x="239.0625"/>
      <use xlink:href="#DejaVuSans-61" x="278.271484"/>
      <use xlink:href="#DejaVuSans-74" x="339.550781"/>
      <use xlink:href="#DejaVuSans-69" x="378.759766"/>
      <use xlink:href="#DejaVuSans-6f" x="406.542969"/>
      <use xlink:href="#DejaVuSans-6e" x="467.724609"/>
      <use xlink:href="#DejaVuSans-2d" x="531.103516"/>
      <use xlink:href="#DejaVuSans-31" x="567.1875"/>
     </g>
    </g>
   </g>
   <g id="text_17">
    <g clip-path="url(#p3382bec31a)">
     <!-- Sport-1 -->
     <g transform="translate(489.172222 206.944881)scale(0.06 -0.06)">
      <use xlink:href="#DejaVuSans-53"/>
      <use xlink:href="#DejaVuSans-70" x="63.476562"/>
      <use xlink:href="#DejaVuSans-6f" x="126.953125"/>
      <use xlink:href="#DejaVuSans-72" x="188.134766"/>
      <use xlink:href="#DejaVuSans-74" x="229.248047"/>
      <use xlink:href="#DejaVuSans-2d" x="268.457031"/>
      <use xlink:href="#DejaVuSans-31" x="304.541016"/>
     </g>
    </g>
   </g>
   <g id="text_18">
    <g clip-path="url(#p3382bec31a)">
     <!-- Social_interactions-1 -->
     <g transform="translate(503.603757 95.291196)scale(0.06 -0.06)">
      <use xlink:href="#DejaVuSans-53"/>
      <use xlink:href="#DejaVuSans-6f" x="63.476562"/>
      <use xlink:href="#DejaVuSans-63" x="124.658203"/>
      <use xlink:href="#DejaVuSans-69" x="179.638672"/>
      <use xlink:href="#DejaVuSans-61" x="207.421875"/>
      <use xlink:href="#DejaVuSans-6c" x="268.701172"/>
      <use xlink:href="#DejaVuSans-5f" x="296.484375"/>
      <use xlink:href="#DejaVuSans-69" x="346.484375"/>
      <use xlink:href="#DejaVuSans-6e" x="374.267578"/>
      <use xlink:href="#DejaVuSans-74" x="437.646484"/>
      <use xlink:href="#DejaVuSans-65" x="476.855469"/>
      <use xlink:href="#DejaVuSans-72" x="538.378906"/>
      <use xlink:href="#DejaVuSans-61" x="579.492188"/>
      <use xlink:href="#DejaVuSans-63" x="640.771484"/>
      <use xlink:href="#DejaVuSans-74" x="695.751953"/>
      <use xlink:href="#DejaVuSans-69" x="734.960938"/>
      <use xlink:href="#DejaVuSans-6f" x="762.744141"/>
      <use xlink:href="#DejaVuSans-6e" x="823.925781"/>
      <use xlink:href="#DejaVuSans-73" x="887.304688"/>
      <use xlink:href="#DejaVuSans-2d" x="939.404297"/>
      <use xlink:href="#DejaVuSans-31" x="975.488281"/>
     </g>
    </g>
   </g>
   <g id="text_19">
    <g clip-path="url(#p3382bec31a)">
     <!-- Mood-2 -->
     <g transform="translate(934.516675 987.936617)scale(0.06 -0.06)">
      <defs>
       <path id="DejaVuSans-32" d="M 1228 531 
L 3431 531 
L 3431 0 
L 469 0 
L 469 531 
Q 828 903 1448 1529 
Q 2069 2156 2228 2338 
Q 2531 2678 2651 2914 
Q 2772 3150 2772 3378 
Q 2772 3750 2511 3984 
Q 2250 4219 1831 4219 
Q 1534 4219 1204 4116 
Q 875 4013 500 3803 
L 500 4441 
Q 881 4594 1212 4672 
Q 1544 4750 1819 4750 
Q 2544 4750 2975 4387 
Q 3406 4025 3406 3419 
Q 3406 3131 3298 2873 
Q 3191 2616 2906 2266 
Q 2828 2175 2409 1742 
Q 1991 1309 1228 531 
z
" transform="scale(0.015625)"/>
      </defs>
      <use xlink:href="#DejaVuSans-4d"/>
      <use xlink:href="#DejaVuSans-6f" x="86.279297"/>
      <use xlink:href="#DejaVuSans-6f" x="147.460938"/>
      <use xlink:href="#DejaVuSans-64" x="208.642578"/>
      <use xlink:href="#DejaVuSans-2d" x="272.119141"/>
      <use xlink:href="#DejaVuSans-32" x="308.203125"/>
     </g>
    </g>
   </g>
   <g id="text_20">
    <g clip-path="url(#p3382bec31a)">
     <!-- Energy-2 -->
     <g transform="translate(926.937786 876.366369)scale(0.06 -0.06)">
      <use xlink:href="#DejaVuSans-45"/>
      <use xlink:href="#DejaVuSans-6e" x="63.183594"/>
      <use xlink:href="#DejaVuSans-65" x="126.5625"/>
      <use xlink:href="#DejaVuSans-72" x="188.085938"/>
      <use xlink:href="#DejaVuSans-67" x="227.449219"/>
      <use xlink:href="#DejaVuSans-79" x="290.925781"/>
      <use xlink:href="#DejaVuSans-2d" x="348.355469"/>
      <use xlink:href="#DejaVuSans-32" x="384.439453"/>
     </g>
    </g>
   </g>
   <g id="text_21">
    <g clip-path="url(#p3382bec31a)">
     <!-- Deep_work-2 -->
     <g transform="translate(950.385679 764.712683)scale(0.06 -0.06)">
      <use xlink:href="#DejaVuSans-44"/>
      <use xlink:href="#DejaVuSans-65" x="77.001953"/>
      <use xlink:href="#DejaVuSans-65" x="138.525391"/>
      <use xlink:href="#DejaVuSans-70" x="200.048828"/>
      <use xlink:href="#DejaVuSans-5f" x="263.525391"/>
      <use xlink:href="#DejaVuSans-77" x="313.525391"/>
      <use xlink:href="#DejaVuSans-6f" x="395.3125"/>
      <use xlink:href="#DejaVuSans-72" x="456.494141"/>
      <use xlink:href="#DejaVuSans-6b" x="497.607422"/>
      <use xlink:href="#DejaVuSans-2d" x="555.517578"/>
      <use xlink:href="#DejaVuSans-32" x="591.601562"/>
     </g>
    </g>
   </g>
   <g id="text_22">
    <g clip-path="url(#p3382bec31a)">
     <!-- Stoicism-2 -->
     <g transform="translate(941.915381 653.225873)scale(0.06 -0.06)">
      <use xlink:href="#DejaVuSans-53"/>
      <use xlink:href="#DejaVuSans-74" x="63.476562"/>
      <use xlink:href="#DejaVuSans-6f" x="102.685547"/>
      <use xlink:href="#DejaVuSans-69" x="163.867188"/>
      <use xlink:href="#DejaVuSans-63" x="191.650391"/>
      <use xlink:href="#DejaVuSans-69" x="246.630859"/>
      <use xlink:href="#DejaVuSans-73" x="274.414062"/>
      <use xlink:href="#DejaVuSans-6d" x="326.513672"/>
      <use xlink:href="#DejaVuSans-2d" x="423.925781"/>
      <use xlink:href="#DejaVuSans-32" x="460.009766"/>
     </g>
    </g>
   </g>
   <g id="text_23">
    <g clip-path="url(#p3382bec31a)">
     <!-- Optimization_power-2 -->
     <g transform="translate(920.89622 541.572188)scale(0.06 -0.06)">
      <use xlink:href="#DejaVuSans-4f"/>
      <use xlink:href="#DejaVuSans-70" x="78.710938"/>
      <use xlink:href="#DejaVuSans-74" x="142.1875"/>
      <use xlink:href="#DejaVuSans-69" x="181.396484"/>
      <use xlink:href="#DejaVuSans-6d" x="209.179688"/>
      <use xlink:href="#DejaVuSans-69" x="306.591797"/>
      <use xlink:href="#DejaVuSans-7a" x="334.375"/>
      <use xlink:href="#DejaVuSans-61" x="386.865234"/>
      <use xlink:href="#DejaVuSans-74" x="448.144531"/>
      <use xlink:href="#DejaVuSans-69" x="487.353516"/>
      <use xlink:href="#DejaVuSans-6f" x="515.136719"/>
      <use xlink:href="#DejaVuSans-6e" x="576.318359"/>
      <use xlink:href="#DejaVuSans-5f" x="639.697266"/>
      <use xlink:href="#DejaVuSans-70" x="689.697266"/>
      <use xlink:href="#DejaVuSans-6f" x="753.173828"/>
      <use xlink:href="#DejaVuSans-77" x="814.355469"/>
      <use xlink:href="#DejaVuSans-65" x="896.142578"/>
      <use xlink:href="#DejaVuSans-72" x="957.666016"/>
      <use xlink:href="#DejaVuSans-2d" x="992.404297"/>
      <use xlink:href="#DejaVuSans-32" x="1028.488281"/>
     </g>
    </g>
   </g>
   <g id="text_24">
    <g clip-path="url(#p3382bec31a)">
     <!-- Sleep-2 -->
     <g transform="translate(974.955523 430.085377)scale(0.06 -0.06)">
      <use xlink:href="#DejaVuSans-53"/>
      <use xlink:href="#DejaVuSans-6c" x="63.476562"/>
      <use xlink:href="#DejaVuSans-65" x="91.259766"/>
      <use xlink:href="#DejaVuSans-65" x="152.783203"/>
      <use xlink:href="#DejaVuSans-70" x="214.306641"/>
      <use xlink:href="#DejaVuSans-2d" x="277.783203"/>
      <use xlink:href="#DejaVuSans-32" x="313.867188"/>
     </g>
    </g>
   </g>
   <g id="text_25">
    <g clip-path="url(#p3382bec31a)">
     <!-- Meditation-2 -->
     <g transform="translate(958.95744 318.515129)scale(0.06 -0.06)">
      <use xlink:href="#DejaVuSans-4d"/>
      <use xlink:href="#DejaVuSans-65" x="86.279297"/>
      <use xlink:href="#DejaVuSans-64" x="147.802734"/>
      <use xlink:href="#DejaVuSans-69" x="211.279297"/>
      <use xlink:href="#DejaVuSans-74" x="239.0625"/>
      <use xlink:href="#DejaVuSans-61" x="278.271484"/>
      <use xlink:href="#DejaVuSans-74" x="339.550781"/>
      <use xlink:href="#DejaVuSans-69" x="378.759766"/>
      <use xlink:href="#DejaVuSans-6f" x="406.542969"/>
      <use xlink:href="#DejaVuSans-6e" x="467.724609"/>
      <use xlink:href="#DejaVuSans-2d" x="531.103516"/>
      <use xlink:href="#DejaVuSans-32" x="567.1875"/>
     </g>
    </g>
   </g>
   <g id="text_26">
    <g clip-path="url(#p3382bec31a)">
     <!-- Sport-2 -->
     <g transform="translate(981.344451 206.944881)scale(0.06 -0.06)">
      <use xlink:href="#DejaVuSans-53"/>
      <use xlink:href="#DejaVuSans-70" x="63.476562"/>
      <use xlink:href="#DejaVuSans-6f" x="126.953125"/>
      <use xlink:href="#DejaVuSans-72" x="188.134766"/>
      <use xlink:href="#DejaVuSans-74" x="229.248047"/>
      <use xlink:href="#DejaVuSans-2d" x="268.457031"/>
      <use xlink:href="#DejaVuSans-32" x="304.541016"/>
     </g>
    </g>
   </g>
   <g id="text_27">
    <g clip-path="url(#p3382bec31a)">
     <!-- Social_interactions-2 -->
     <g transform="translate(938.688596 95.291196)scale(0.06 -0.06)">
      <use xlink:href="#DejaVuSans-53"/>
      <use xlink:href="#DejaVuSans-6f" x="63.476562"/>
      <use xlink:href="#DejaVuSans-63" x="124.658203"/>
      <use xlink:href="#DejaVuSans-69" x="179.638672"/>
      <use xlink:href="#DejaVuSans-61" x="207.421875"/>
      <use xlink:href="#DejaVuSans-6c" x="268.701172"/>
      <use xlink:href="#DejaVuSans-5f" x="296.484375"/>
      <use xlink:href="#DejaVuSans-69" x="346.484375"/>
      <use xlink:href="#DejaVuSans-6e" x="374.267578"/>
      <use xlink:href="#DejaVuSans-74" x="437.646484"/>
      <use xlink:href="#DejaVuSans-65" x="476.855469"/>
      <use xlink:href="#DejaVuSans-72" x="538.378906"/>
      <use xlink:href="#DejaVuSans-61" x="579.492188"/>
      <use xlink:href="#DejaVuSans-63" x="640.771484"/>
      <use xlink:href="#DejaVuSans-74" x="695.751953"/>
      <use xlink:href="#DejaVuSans-69" x="734.960938"/>
      <use xlink:href="#DejaVuSans-6f" x="762.744141"/>
      <use xlink:href="#DejaVuSans-6e" x="823.925781"/>
      <use xlink:href="#DejaVuSans-73" x="887.304688"/>
      <use xlink:href="#DejaVuSans-2d" x="939.404297"/>
      <use xlink:href="#DejaVuSans-32" x="975.488281"/>
     </g>
    </g>
   </g>
  </g>
 </g>
 <defs>
  <clipPath id="p3382bec31a">
   <rect x="0" y="0" width="1080" height="1080"/>
  </clipPath>
 </defs>
</svg>
